<?xml version="1.0" encoding="UTF-8"?>
<!DOCTYPE svg PUBLIC "-//W3C//DTD SVG 1.1//EN" "http://www.w3.org/Graphics/SVG/1.1/DTD/svg11.dtd">
<!-- Creator: CorelDRAW -->
<svg xmlns="http://www.w3.org/2000/svg" xml:space="preserve" width="136.023mm" height="63.299mm" version="1.1" style="shape-rendering:geometricPrecision; text-rendering:geometricPrecision; image-rendering:optimizeQuality; fill-rule:evenodd; clip-rule:evenodd"
viewBox="0 0 4103.73 1909.69"
 xmlns:xlink="http://www.w3.org/1999/xlink"
 xmlns:xodm="http://www.corel.com/coreldraw/odm/2003">
 <defs>
  <style type="text/css">
   <![CDATA[
    .fil1 {fill:#018FA3;fill-rule:nonzero}
    .fil0 {fill:#95D8E0;fill-rule:nonzero}
    .fil2 {fill:#FFF7BE;fill-rule:nonzero}
   ]]>
  </style>
 </defs>
 <g id="Слой_x0020_1">
  <metadata id="CorelCorpID_0Corel-Layer"/>
  <g id="_3067206683920">
   <path class="fil0" d="M4103.73 1117.11c0,400.06 -408.31,792.59 -809.11,792.59 -400.8,0 -795.34,-392.53 -795.34,-792.59 0,-398.8 394.53,-803.88 795.34,-803.88 400.8,0 809.11,405.07 809.11,803.88z"/>
   <path class="fil1" d="M3952.07 1124.35c0,348.05 -355.5,689.55 -704.45,689.55 -348.95,0 -692.45,-341.5 -692.45,-689.55 0,-346.96 343.5,-699.37 692.45,-699.37 348.95,0 704.45,352.41 704.45,699.37z"/>
  </g>
  <path class="fil2" d="M239.47 0l3033.28 0c132.23,0 239.47,107.24 239.47,239.47l0 894.02c0,132.23 -107.24,239.47 -239.47,239.47l-3033.28 0c-132.23,-0 -239.47,-107.24 -239.47,-239.47l-0 -894.02c0,-132.23 107.24,-239.47 239.47,-239.47z"/>
 </g>
</svg>
