<?xml version="1.0" encoding="UTF-8"?>
<!DOCTYPE svg PUBLIC "-//W3C//DTD SVG 1.1//EN" "http://www.w3.org/Graphics/SVG/1.1/DTD/svg11.dtd">
<!-- Creator: CorelDRAW -->
<svg xmlns="http://www.w3.org/2000/svg" xml:space="preserve" width="138.802mm" height="70.984mm" version="1.1" style="shape-rendering:geometricPrecision; text-rendering:geometricPrecision; image-rendering:optimizeQuality; fill-rule:evenodd; clip-rule:evenodd"
viewBox="0 0 6123.29 3131.49"
 xmlns:xlink="http://www.w3.org/1999/xlink"
 xmlns:xodm="http://www.corel.com/coreldraw/odm/2003">
 <defs>
  <style type="text/css">
   <![CDATA[
    .fil0 {fill:#FAE01A;fill-rule:nonzero}
    .fil1 {fill:#FFF7BE;fill-rule:nonzero}
   ]]>
  </style>
 </defs>
 <g id="Слой_x0020_1">
  <metadata id="CorelCorpID_0Corel-Layer"/>
  <g id="_3067278621472">
   <path class="fil0" d="M2346.11 1175.47c0,584.98 -597.05,1158.96 -1183.13,1158.96 -586.07,0 -1162.98,-573.98 -1162.98,-1158.96 0,-583.15 576.91,-1175.47 1162.98,-1175.47 586.07,0 1183.13,592.32 1183.13,1175.47z"/>
   <path class="fil1" d="M2346.11 1168.61c0,511.86 -522.8,1014.09 -1035.97,1014.09 -513.17,0 -1018.33,-502.23 -1018.33,-1014.09 0,-510.26 505.16,-1028.54 1018.33,-1028.54 513.18,0 1035.97,518.28 1035.97,1028.54z"/>
  </g>
  <path class="fil1" d="M1337.7 750.36l4435.43 0c193.36,0 350.17,156.81 350.17,350.17l0 1680.8c0,193.35 -156.81,350.16 -350.17,350.16l-4435.43 0c-193.35,-0 -350.16,-156.81 -350.16,-350.17l-0 -1680.79c0,-193.36 156.81,-350.17 350.17,-350.17z"/>
 </g>
</svg>
