<?xml version="1.0" encoding="UTF-8"?>
<!DOCTYPE svg PUBLIC "-//W3C//DTD SVG 1.1//EN" "http://www.w3.org/Graphics/SVG/1.1/DTD/svg11.dtd">
<!-- Creator: CorelDRAW -->
<svg xmlns="http://www.w3.org/2000/svg" xml:space="preserve" width="26.987mm" height="18.0733mm" version="1.1" style="shape-rendering:geometricPrecision; text-rendering:geometricPrecision; image-rendering:optimizeQuality; fill-rule:evenodd; clip-rule:evenodd"
viewBox="0 0 102.45 68.61"
 xmlns:xlink="http://www.w3.org/1999/xlink"
 xmlns:xodm="http://www.corel.com/coreldraw/odm/2003">
 <defs>
  <style type="text/css">
   <![CDATA[
    .fil0 {fill:#028EA2}
    .fil2 {fill:#057985}
    .fil1 {fill:#FADE1C}
   ]]>
  </style>
 </defs>
 <g id="Слой_x0020_1">
  <metadata id="CorelCorpID_0Corel-Layer"/>
  <g id="_3066865049376">
   <path class="fil0" d="M69.04 13.31l1.94 -0.49c-0.57,-0.39 -1.57,-0.31 -2.36,-0.31l-2.99 0.22 -0.63 -1.07 3.46 0.14c0.83,-0.64 5.68,-1.46 7.04,-1.5l1.54 -0.1 -2.58 -0.75c-1.56,0.06 -2.32,0.02 -3.71,0.3 -1.15,0.23 -2.32,0.49 -3.46,0.51 -3.32,0.15 -3.16,-0.08 -4.47,-2.28 -0.89,-1.5 -1.65,-2.75 -2.46,-4.2 -4.42,0.43 -9.99,3.91 -12.76,7.33 -1.87,2.31 -1.36,1.5 -1.45,5.21 -0.05,0.03 -0.14,-0.01 -0.17,0.06l-1 0.31c-0.04,0.01 -0.11,0.03 -0.16,0.06l1.34 0.52 0.02 23.08c0.55,-0.41 1.87,-2.08 2.4,-2.71 6.25,-7.52 14.89,-9.73 23.89,-13.18 -0.63,-1.89 -5.39,-8.58 -5.93,-10.47l2.5 -0.66z"/>
   <path class="fil0" d="M29.98 3.79c-0.8,0.88 -2.45,4 -3.15,5.19 -1.51,2.56 -8.83,14.56 -9.03,15.52 2.37,0.69 5.26,1.87 7.69,2.8 2.6,0.99 4.98,1.87 7.29,3.18 3.78,2.15 5.93,3.93 8.71,6.99l2.56 2.8c0.19,-8.42 -0.04,-16.97 0.02,-25.42 0.02,-2.75 -0.68,-2.85 -1.98,-4.37 -2.59,-3.04 -8.36,-6.39 -12.12,-6.68z"/>
   <path class="fil1" d="M8 33.81l3.07 0.03c10.3,-0.29 17.86,2.22 25.73,7.05 1.4,0.86 5.74,4.07 7.02,4.14 -0.37,-1.04 -5.32,-5.54 -6.17,-6.24 -2.12,-1.77 -4.58,-3.7 -7.21,-5.14 -8.42,-4.61 -17.73,-5.45 -18.73,-6.03 0.43,-2.15 15.23,-22.35 15.42,-24.31 -4.87,-0.11 -8.06,0.44 -10.31,4.04 -1.8,2.88 -3.91,6.11 -5.62,8.83 -2.02,3.2 -3.6,5.55 -5.64,8.81 -0.89,1.42 -5.27,7.92 -5.57,8.99l8 -0.16z"/>
   <path class="fil1" d="M68.47 11.8l0.15 0.71c0.79,-0 1.79,-0.08 2.36,0.31l-1.94 0.49c0.82,0.25 1.98,2.61 2.5,3.32l7.02 10.99c-1,0.59 -4.75,0.76 -6.24,1.49 1.96,2.35 3.22,2.65 7.12,1.72 1.44,-0.35 2.46,-0.63 3.94,-0.87 0.68,-0.11 3.67,-0.47 4.07,-0.64l-2.46 -4.07 -5.36 0.02c0.08,-1.07 0.64,-1.5 0.43,-3.29 -0.54,-4.59 -4.94,-4.46 -5.82,-5.03 2.14,-1.49 5.18,0.89 6.2,1.66 -0.15,-0.78 -2.09,-3.5 -2.51,-4.17 -0.36,-0.56 -2.5,-3.52 -2.42,-4.13 -1.36,0.04 -6.21,0.87 -7.04,1.5z"/>
   <path class="fil1" d="M79.2 33.86l3.12 -0.02c0.69,-0.04 1.66,-0.06 2.34,-0.02 0.56,0.03 0.45,0.01 0.93,0.15 0.35,0.1 0.04,0.37 0.33,0.14 0.26,-0.7 2.33,-1.43 3.07,-2.09 -0.1,-0.66 -0.35,-0.84 -0.62,-1.35 -2.68,0.17 -7.14,1.29 -9.62,1.96 -3.54,0.95 -6.33,0.24 -7.08,-3.33 -1.54,0.04 -6.34,1.77 -7.87,2.42 -5,2.12 -8.37,4.64 -12.4,8.11 -0.97,0.84 -1.78,1.68 -2.55,2.47 -0.62,0.63 -2.07,1.85 -2.38,2.76 1.46,-0.16 8.94,-5.93 14.1,-8 4.54,-1.82 12.83,-3.61 18.63,-3.2z"/>
   <path class="fil0" d="M74.77 2.09c0.98,2.14 4.4,2.13 6.94,1.44 6.51,-1.77 3.85,-0.37 8.02,-0.37 1.35,-1.78 1.39,-1.78 4.54,-1.65 -0.39,0.93 -1.47,1.27 -1.92,2.24l5.49 6.48c0.9,0.95 1.91,2.1 2.74,3.12 1.9,2.33 0.22,3.88 -0.49,4.01 -1.43,0.27 -1.93,-1.92 -2.99,-2.84 -1.32,-1.15 -3.14,-0.86 -5.15,-0.96 -6.1,-0.32 -5.16,-4.95 -5.86,-6.21 -1,1.77 -0.43,6.78 4.47,7.4 1.93,0.24 4.29,-0.24 5.72,0.79 1.33,0.95 1.15,3.18 3.41,3.16 2.05,-0.01 2.98,-1.73 2.7,-3.83 -0.32,-2.33 -6.94,-8.65 -8.31,-11.13 0.85,-1.03 2.48,-2.17 2.89,-3.75 -1.01,0.06 -5.41,0.27 -6,0.47 -1.29,0.42 -1.15,1.15 -2.16,1.25 -0.69,0.06 -2.26,-0.29 -3.14,-0.31 -2.06,-0.04 -3.57,0.74 -5.35,1.17 -3.14,0.76 -3.15,0.15 -5.56,-0.48z"/>
   <path class="fil2" d="M24.51 49.9c0.11,-0.49 1.76,-3.31 -1.64,-3.2l-3.54 8.8c-0.08,1.25 1.16,1.69 2.31,1.65 0.41,-0.83 0.92,-2.47 1.36,-3.11 0.09,1.76 -0.06,2.21 0.85,3.53 0.95,0.1 2.01,-0.21 2.62,-0.64 0.03,-1.43 -0.98,-2.25 -0.68,-4.61 1.13,-0.93 1.44,-1.29 2.27,-2.56 0.79,-1.19 0.74,-2.84 -0.79,-3.13 -1.03,0.51 -1.45,2.42 -2.76,3.26z"/>
   <path class="fil2" d="M36.48 57.13c1.1,-1.05 1.17,-4.57 2.62,-4.73 -0.42,1.86 -2.73,4.51 0.73,4.77 0.83,-1 0.99,-4.61 2.41,-4.74 -0.08,1.38 -1.05,2.44 -1.16,3.94 0.51,0.46 0.94,1.07 2.03,0.91 0.34,-0.63 0.97,-2.63 1.26,-3.56 0.6,-1.9 0.54,-2.63 -0.54,-3.67 -0.98,-0.5 -1.08,0.56 -2.52,-0.05 -1.41,-0.61 -1.13,-0.17 -2.32,0.22 -0.74,-0.38 -0.84,-0.78 -1.94,-0.84 -0.98,3.26 -4,7.65 -0.57,7.74z"/>
   <path class="fil2" d="M61.44 54.84c0.2,-1.01 1.03,-2 1.75,-2.28 -0.36,1.15 -0.6,2.11 -1.75,2.28zm3.69 -2.89c0.09,-0.65 1.57,-0.53 -0.39,-2.35 -2.24,-0.15 -4.21,1.67 -5,2.96 -0.83,1.34 -1.52,3.96 0.61,4.61 0.06,0.02 0.29,0.07 0.34,0.09 0.04,0.01 0.14,0.09 0.16,0.04 0.03,-0.05 0.11,0.02 0.16,0.05 -0.82,1.14 -1.09,0.76 -2.62,1.18 -0.17,0.95 0.17,1.4 0.52,1.91 2.73,0.6 3.9,-1.51 4.78,-3.09 0.65,-1.17 2.53,-4.4 1.44,-5.4z"/>
   <path class="fil0" d="M71.67 29.3c0.74,3.57 3.54,4.28 7.08,3.33 2.48,-0.67 6.95,-1.78 9.62,-1.96l4.07 -0.82 -3.44 2.17c-0.75,0.66 -2.81,1.39 -3.07,2.09l1.42 -0.4c0.46,-0.43 0.43,-0.31 1.09,-0.63 0.41,-0.2 0.62,-0.35 1.18,-0.48 1.26,-1.08 5.35,-1.92 5.02,-3.85 -1.76,-0.26 -5.27,0.38 -7.18,0.55 -0.4,0.17 -3.39,0.53 -4.07,0.64 -1.48,0.24 -2.5,0.52 -3.94,0.87 -3.89,0.94 -5.15,0.63 -7.12,-1.72l-0.57 -1.28 -0.08 1.47z"/>
   <path class="fil0" d="M82.32 33.84l-3.12 0.02c0.39,1.07 1.63,2.63 2.24,3.75 -2.48,0.25 -12.04,-0.13 -13.24,1.32 0.91,0.52 17.37,0.85 17.69,0.83 0.15,-1.89 -2.41,-3.5 -3.57,-5.92z"/>
   <path class="fil0" d="M11.07 33.85l-3.07 -0.03c-1.27,2.16 -3.76,4.31 -3.67,5.87 1.16,0.28 10.97,-0.3 13.51,-0.4l4.07 -0.28c0.03,-0.07 0.11,-0.04 0.16,-0.07 -1.11,-1.36 -11.81,-1.26 -13.3,-1.33l2.3 -3.75z"/>
   <path class="fil0" d="M80.44 18.6c-1.02,-0.77 -4.06,-3.15 -6.2,-1.66 0.88,0.57 5.28,0.44 5.82,5.03 0.21,1.78 -0.36,2.22 -0.43,3.29l5.36 -0.02c1.83,-0.05 3.74,0.03 5.52,0.26 0.91,0.12 4.17,0.8 4.53,0.65 -0.91,-0.88 -3.88,-1.26 -5.44,-1.63 -1.99,-0.47 -4.21,-0.57 -5.99,-1.01l-1.9 -0.07c-0.09,-1.27 -0.11,-1.88 0.36,-2.87 1.38,-2.81 2.58,-4.27 4.13,-6.47 -1.76,0.29 -4.05,4.52 -5.32,5.07l-0.42 -0.58z"/>
   <path class="fil2" d="M53.6 57.08c0.81,-1.15 1.02,-4.32 2.57,-4.78 -0.3,1.42 -1.36,2.84 -1.46,4 0.4,0.57 0.88,1.24 1.87,0.95 0.84,-0.32 1.36,-2.39 1.74,-3.62 0.66,-2.21 0.28,-2.47 -0.62,-3.87 -1.31,-0.1 -1.18,0.4 -2.05,0.17 -0.66,-0.18 -0.5,-0.51 -1.58,-0.51l-1.82 4.44c-0.29,0.62 -0.85,1.56 -0.46,2.22 0.26,0.45 1.14,0.91 1.82,1z"/>
   <path class="fil2" d="M31.71 52.83c0.33,-0.82 0.39,-0.99 1.2,-1.29 -0.07,1.05 -0.21,1.1 -1.2,1.29zm-0.78 1.59c0.39,-0.19 -0.07,-0.06 0.43,-0.03 0.66,0.03 0.65,0.22 1.49,0.01 3.62,-0.89 2.43,-6.22 -1.21,-4.61 -3.38,1.5 -4.65,6.88 -1.23,7.4 1.29,0.2 2.79,-0.11 3.07,-1.22 0.57,-2.26 -1.93,0.23 -2.55,-1.55z"/>
   <path class="fil2" d="M69.36 52.88c0.22,-0.82 0.48,-1.07 1.23,-1.33 -0.08,1.02 -0.3,1.15 -1.23,1.33zm-0.71 1.22c2.97,1.39 5.11,-2 3.71,-3.75 -1.63,-2.04 -4.36,0.06 -5.29,1.37 -1.35,1.9 -1.49,5.04 1.03,5.46 1.26,0.21 2.99,-0.08 3.13,-1.37 0.24,-2.26 -2.29,0.8 -2.58,-1.71z"/>
   <path class="fil2" d="M48.65 52.88c0.25,-0.81 0.49,-1.02 1.22,-1.32 -0.01,1.04 -0.28,1.15 -1.22,1.32zm-0.64 1.16c1.83,1.34 4.47,-0.58 3.99,-2.94 -0.2,-0.96 -1.23,-1.7 -2.53,-1.56 -2.31,0.26 -5.41,4.36 -3.56,6.76 1.07,1.38 5.11,1.48 4.52,-1.16 -1.42,-0.42 -2.65,0.79 -2.42,-1.09z"/>
   <path class="fil1" d="M65.03 7.14c2.08,0.8 5.7,0.22 7.56,-0.46 -0.31,-1.29 -2.29,-2.4 -3.52,-2.87 -1.81,-0.69 -3.98,-0.51 -6.06,-0.49 0.27,1.47 1.71,2.41 2.02,3.82z"/>
   <path class="fil0" d="M72.59 6.68c-1.86,0.68 -5.48,1.26 -7.56,0.46 -0.92,-0.09 -1.16,-0.34 -1.71,-0.04l2.75 1.09c2.29,0.72 5.76,1.25 7.78,-0.23 1.41,-0.59 2.75,-1.43 4.17,-2.02 1.71,-0.71 3.06,-0.87 4.85,-1.45 -3.16,-0.99 -7.71,1.08 -10.28,2.19z"/>
   <path class="fil2" d="M77.64 52.48c1.59,-3.94 -0.45,-2.11 -1.37,-2.46 -0.72,-0.27 -0.29,-0.48 -1.48,-0.43 -0.46,0.62 -0.98,2.45 -1.37,3.26 -0.76,1.6 -2.42,3.95 0.74,4.28 0.6,-0.78 0.96,-1.98 1.3,-2.86 0.91,-2.32 0.25,-1.33 2.17,-1.78z"/>
   <path class="fil2" d="M29.91 68.38c0.09,-1.14 -0.51,-4.22 1.11,-4.11 1.33,0.09 0.74,2.97 0.88,4.15l0.94 -0.04c0.14,-1.27 -0.49,-4.18 1.12,-4.12 1.32,0.06 0.76,2.94 0.88,4.15l0.93 -0.02c0.28,-2.94 0.3,-6.58 -3.07,-4.27 -0.99,-0.68 -1.86,-1.12 -2.8,0.06 -0.25,-0.93 0.2,-0.6 -1.04,-0.63l0.08 4.88 0.96 -0.04z"/>
   <path class="fil2" d="M61.36 67.21c-0.85,1.63 -3.24,-0.26 -2.14,-2.38 1.01,-1.96 3.2,0.35 2.14,2.38zm-3.27 1.18c0.79,0.04 0.42,-0.04 0.82,-0.13 1.15,-0.24 0.55,0.44 2.05,0.26 1.02,-0.13 1.52,-0.93 1.65,-1.97 0.33,-2.64 -1.21,-3.95 -3.52,-2.63 -0.03,-0.83 0.08,-1.61 -0.21,-2.2 -1.08,-0 -0.84,-0.2 -0.87,1.05l0.09 5.62z"/>
   <path class="fil2" d="M45.88 65.52c0.39,-0.81 1.03,-1.1 1.5,-1.95 -1.21,-0.07 -1.06,-0.03 -1.82,0.78 -0.39,0.42 -0.68,0.73 -1.08,1.1 -0.37,-3.25 0.7,-3.67 -0.89,-3.76 -0.51,0.79 -0.22,5.56 -0.18,6.73 1.97,-0 0.3,-0.81 1.44,-2.06 1.56,0.26 0.32,2.08 2.73,2.04 -0.29,-0.97 -1.22,-1.96 -1.7,-2.88z"/>
   <path class="fil2" d="M53.09 65.48c0.14,-0.7 0.19,-0.77 0.5,-1.23 1.24,-0.14 1.71,0.04 1.83,1.3l-2.33 -0.07zm0.02 0.72l3.47 -0.04c-0.01,-3.95 -4.33,-3.35 -4.59,-0.84 -0.4,3.97 3.74,4.09 4.52,1.71 -2.06,-0.28 -0.32,1.14 -2.95,0.62l-0.44 -1.46z"/>
   <path class="fil2" d="M38.44 65.47c0.11,-0.75 0.16,-0.76 0.49,-1.27l1.39 0.05 0.5 1.28 -2.39 -0.06zm0.48 2.17c-0.22,-0.39 -0.45,-0.76 -0.47,-1.44l3.44 -0.07c-0.05,-4.03 -4.28,-3.24 -4.57,-0.81 -0.48,4.04 3.86,4 4.51,1.72 -2,-0.31 -0.4,1.18 -2.91,0.6z"/>
   <path class="fil1" d="M66.08 8.2c0.38,0.76 0.82,1.34 1.21,2.06 1.14,-0.02 2.32,-0.28 3.46,-0.51 1.39,-0.28 2.15,-0.25 3.71,-0.3 -0.16,-1.04 -0.24,-0.67 -0.6,-1.49 -2.03,1.49 -5.49,0.96 -7.78,0.23z"/>
   <path class="fil2" d="M50.05 67.4l0.03 -2.93c0.96,-0.47 0.68,0.28 1.01,-0.63 -0.3,-0.53 -0.13,-0.31 -1.02,-0.35l-0.1 -1.41 -0.88 -0.01 -0.08 1.37c-0.96,0.17 -0.49,-0.06 -0.8,0.4 0.52,0.66 -0.12,0.13 0.78,0.63 0.05,0.89 -0.08,2.39 0.04,3.15 0.17,1.06 1.3,1.2 2.04,0.62 -0.09,-0.99 0.01,-0.29 -0.37,-0.55 -0.05,-0.03 -0.25,-0.11 -0.29,-0.13 -0.03,-0.02 -0.13,-0.01 -0.15,-0.08 -0.02,-0.07 -0.11,-0.04 -0.2,-0.08z"/>
   <polygon class="fil2" points="64.2,68.39 65.19,68.41 65.21,63.52 64.16,63.63 "/>
   <path class="fil1" d="M83.6 23.52c-0.23,-0.59 -0.41,-0.91 -0.75,-1.44 -0.18,-0.28 -0.22,-0.3 -0.43,-0.63 -0.52,-0.83 -0.25,-0.04 -0.36,-0.87 -0.47,0.99 -0.44,1.6 -0.36,2.87l1.9 0.07z"/>
   <path class="fil1" d="M87.34 33.71l2.9 0.24 -0.64 -1.35c-0.56,0.12 -0.77,0.28 -1.18,0.48 -0.66,0.32 -0.62,0.2 -1.09,0.63z"/>
   <path class="fil2" d="M64.08 62.53l1.1 0.14 -0.01 -0.71c-0.4,-0.22 0.43,-0.12 -0.44,-0.17 -0.38,-0.02 -0.25,0.01 -0.59,0.07l-0.06 0.67z"/>
  </g>
 </g>
</svg>
